<svg width="305" height="41" fill="none" xmlns="http://www.w3.org/2000/svg"><g clip-path="url(#clip0_115_540)"><path d="M0 20.497A21.518 21.518 0 013.749 8.396 21.937 21.937 0 0113.695.413a9.824 9.824 0 017.884.964 11.662 11.662 0 013.975 4.154 11.485 11.485 0 011.484 5.523v3.09c0 2.754-2.263 3.311-5.053 3.311s-5.052-.557-5.052-3.311v-2.85a3.105 3.105 0 00-.916-2.206 3.186 3.186 0 00-2.225-.926 3.192 3.192 0 00-2.22.93 3.111 3.111 0 00-.916 2.201v18.539a18.17 18.17 0 003.9 11.09A21.98 21.98 0 014.009 32.98 21.542 21.542 0 010 20.497zm30.228 20.09a9.822 9.822 0 01-7.885-.964 11.662 11.662 0 01-3.974-4.154 11.485 11.485 0 01-1.484-5.523v-3.09c0-2.754 2.262-3.311 5.052-3.311 2.79 0 5.052.557 5.052 3.311v2.845a3.11 3.11 0 00.916 2.207 3.192 3.192 0 002.226.93 3.186 3.186 0 001.866-.622 3.12 3.12 0 001.27-2.515V11.162A18.165 18.165 0 0029.347.078a21.937 21.937 0 0110.43 7.74 21.501 21.501 0 014.142 12.215 21.48 21.48 0 01-3.608 12.38 21.903 21.903 0 01-10.084 8.174z" fill="url(#paint0_linear_115_540)"/><path d="M66.97 29.898v-8.67c0-2.396-1.51-3.18-3.64-3.18-2.128 0-3.48 1.036-3.48 3.162v8.688a3.12 3.12 0 01-.932 2.219 3.199 3.199 0 01-2.247.919c-.843 0-1.651-.33-2.247-.92a3.118 3.118 0 01-.93-2.218V8.275c0-.832.334-1.63.93-2.218a3.199 3.199 0 012.247-.92c.843 0 1.651.331 2.247.92.596.588.931 1.386.931 2.218v7.126a9.007 9.007 0 013.115-2.181 9.108 9.108 0 013.75-.711c4.537 0 6.6 2.527 6.6 6.15v11.24a3.103 3.103 0 01-.88 2.306 3.213 3.213 0 01-4.592 0 3.103 3.103 0 01-.88-2.307h.007zm27.473-9.538v9.377a3.165 3.165 0 01-.892 2.304 3.28 3.28 0 01-2.286.995 3.42 3.42 0 01-1.993-.645 3.35 3.35 0 01-1.227-1.678c-1.213 1.467-3.585 2.443-6.144 2.443-3.032 0-6.847-2.036-6.847-6.473 0-4.79 3.796-6.192 6.847-6.192 2.638 0 4.992.814 6.186 2.281v-2.485c0-1.712-1.486-2.85-4.039-2.85a8.46 8.46 0 00-4.088 1.06 2.45 2.45 0 01-1.067.281 2.387 2.387 0 01-1.657-.683 2.327 2.327 0 01-.696-1.634 2.37 2.37 0 01.334-1.176c.213-.357.516-.653.879-.86a15.093 15.093 0 017.38-1.916c4.81 0 9.31 1.754 9.31 7.85zm-6.356 7.245v-1.737c-.66-.898-2.14-1.389-3.548-1.389-1.692 0-3.172.736-3.172 2.281 0 1.545 1.48 2.282 3.172 2.282 1.407 0 2.887-.485 3.548-1.425v-.012zm21.834-12.288a2.915 2.915 0 01-.724 2.135 2.98 2.98 0 01-2.042 1.003c-1.213.162-3.135.599-3.96 1.749v9.694a3.1 3.1 0 01-.201 1.242 3.14 3.14 0 01-1.726 1.78 3.214 3.214 0 01-3.544-.715 3.103 3.103 0 01-.88-2.307V15.892a3.126 3.126 0 01.895-2.29 3.237 3.237 0 012.284-.968 3.142 3.142 0 012.161.756 3.063 3.063 0 011.053 2.011 7.355 7.355 0 012.56-2.443c.451-.216.942-.34 1.443-.365a2.645 2.645 0 011.936.791 2.603 2.603 0 01.745 1.933zm32.817 3.096v11.485c0 .826-.332 1.618-.923 2.202a3.176 3.176 0 01-2.23.912 3.172 3.172 0 01-2.23-.912 3.092 3.092 0 01-.924-2.202v-9.203c0-1.51-1.383-2.647-3.281-2.647-1.735 0-2.948.952-2.948 1.916v9.934a3.098 3.098 0 01-.879 2.307 3.21 3.21 0 01-4.592 0 3.139 3.139 0 01-.678-1.065 3.099 3.099 0 01-.201-1.242v-9.203c0-1.51-1.176-2.647-3.117-2.647s-3.075 1.293-3.075 2.545v9.305a3.12 3.12 0 01-.931 2.219 3.198 3.198 0 01-2.247.919c-.843 0-1.651-.33-2.247-.92a3.118 3.118 0 01-.931-2.218V15.766a3.145 3.145 0 01.861-2.178 3.238 3.238 0 014.394-.28 3.156 3.156 0 011.137 2.051c.868-1.137 3.427-2.85 6.52-2.85 2.844 0 4.852 1.197 5.653 3.503a8.52 8.52 0 013.017-2.565 8.64 8.64 0 013.866-.938c3.682 0 5.986 1.862 5.986 5.904zm1.735 4.401c0-5.539 4.081-10.305 10.85-10.305 6.768 0 10.886 4.79 10.886 10.305s-4.039 10.342-10.886 10.342c-6.847 0-10.85-4.803-10.85-10.342zm15.223 0c0-2.61-1.571-4.79-4.373-4.79-2.802 0-4.294 2.156-4.294 4.79 0 2.635 1.528 4.79 4.294 4.79 2.765 0 4.373-2.143 4.373-4.79zm28.087-4.072v11.156a3.1 3.1 0 01-.201 1.242 3.14 3.14 0 01-1.726 1.78 3.213 3.213 0 01-3.544-.715 3.099 3.099 0 01-.879-2.307v-8.593c0-2.395-1.589-3.257-3.572-3.257-1.984 0-3.567.832-3.567 2.928v8.922a3.099 3.099 0 01-.879 2.307 3.17 3.17 0 01-1.047.716 3.218 3.218 0 01-2.497 0 3.176 3.176 0 01-1.047-.716 3.127 3.127 0 01-.88-2.307V15.766a3.099 3.099 0 01.906-2.255 3.162 3.162 0 011.037-.694c.39-.16.807-.243 1.229-.242a3.244 3.244 0 012.154.796 3.166 3.166 0 011.067 2.012 8.966 8.966 0 013.111-2.158 9.069 9.069 0 013.736-.692c4.537-.024 6.599 2.58 6.599 6.21zm4.621 16.408l.285-.042c1.365-.078 2.232-.324 2.602-1.096l.455-1.06-6.52-16.042a3.149 3.149 0 01-.291-1.197 3.036 3.036 0 01.895-2.181 3.132 3.132 0 012.198-.909 2.963 2.963 0 011.774.503c.521.351.913.86 1.119 1.449l4.124 11.24 4.039-11.24a2.954 2.954 0 011.123-1.438 3.014 3.014 0 011.764-.514 3.135 3.135 0 012.224.896 3.045 3.045 0 01.912 2.194 4.061 4.061 0 01-.291 1.197l-7.545 18.563a7.804 7.804 0 01-3.001 3.83 7.957 7.957 0 01-4.714 1.338h-.491a2.988 2.988 0 01-2.172-.791 2.905 2.905 0 01-.927-2.096 2.576 2.576 0 01.699-1.776 2.644 2.644 0 011.739-.828zm27.675-22.641a8.67 8.67 0 013.457.571 8.59 8.59 0 012.936 1.89c.28.268.443.633.454 1.018a1.372 1.372 0 01-.864 1.276c-.17.068-.353.103-.537.101a1.324 1.324 0 01-.909-.365 5.8 5.8 0 00-1.998-1.334 5.85 5.85 0 00-2.375-.415c-4.246 0-6.884 3.216-6.884 7.575 0 4.36 2.638 7.611 6.884 7.611a5.704 5.704 0 002.358-.41 5.637 5.637 0 001.972-1.338 1.311 1.311 0 01.952-.366 1.399 1.399 0 01.995.402 1.347 1.347 0 01.406.982 1.382 1.382 0 01-.454 1.017 8.561 8.561 0 01-2.938 1.883 8.64 8.64 0 01-3.455.56c-5.937 0-9.94-4.478-9.94-10.34 0-5.863 4.003-10.318 9.94-10.318zm26.158 6.653v12.161c0 .405-.163.794-.453 1.08a1.558 1.558 0 01-2.187 0 1.518 1.518 0 01-.453-1.08v-.898a8.427 8.427 0 01-2.992 2.09 8.524 8.524 0 01-3.607.64c-3.384 0-6.975-2.239-6.975-6.514 0-4.395 3.591-6.473 6.975-6.473 2.717 0 4.985.856 6.599 2.688v-3.545c0-2.646-2.147-4.155-5.034-4.155a7.374 7.374 0 00-5.198 1.958c-.249.15-.533.232-.825.24-.338 0-.663-.133-.902-.369a1.252 1.252 0 01-.377-.89 1.328 1.328 0 01.539-1.018 10.391 10.391 0 017.175-2.568c4.234 0 7.715 1.862 7.715 6.653zm-3.093 9.365v-3.719c-1.213-1.628-3.3-2.443-5.489-2.443-2.887 0-4.907 1.797-4.907 4.318 0 2.52 2.02 4.275 4.907 4.275 2.214 0 4.336-.814 5.513-2.443l-.024.012zm17.043-14.389c0 .736-.607 1.383-1.693 1.509-1.819.12-4.245 1.503-5.155 3.095v12.575c0 .405-.163.794-.453 1.08a1.557 1.557 0 01-2.187 0 1.518 1.518 0 01-.453-1.08V14.371c0-.405.163-.793.453-1.08a1.556 1.556 0 012.187 0c.29.287.453.675.453 1.08v1.797c1.213-1.587 2.845-2.893 4.452-3.3a3.37 3.37 0 01.988-.203 1.407 1.407 0 011.033.43 1.365 1.365 0 01.375 1.043zm9.8-1.629c6.023 0 9.571 4.64 9.571 9.772 0 .976-.661 1.551-1.82 1.551h-14.313c.249 3.707 2.887 6.797 7.175 6.797a8.65 8.65 0 005.355-1.887c.214-.119.458-.177.704-.167.33-.008.65.113.89.338.24.224.38.533.389.86a1.255 1.255 0 01-.539 1.017 11.372 11.372 0 01-7.09 2.324c-5.901 0-10.147-4.192-10.147-10.342.024-5.658 4.136-10.263 9.825-10.263zm-6.556 9.084h13.076c-.042-2.934-2.026-6.587-6.562-6.587-4.246.03-6.35 3.557-6.514 6.587zm17.497 8.143a1.35 1.35 0 01.403-.949c.256-.252.601-.395.962-.398.293.001.58.087.825.246a8.983 8.983 0 005.652 2.036c3.033 0 4.701-1.342 4.701-3.258 0-2.155-2.426-2.85-5.119-3.503-3.378-.772-7.217-1.665-7.217-5.742 0-3.054 2.68-5.659 7.429-5.659a10.398 10.398 0 016.599 2.162 1.382 1.382 0 01.533 1.018 1.33 1.33 0 01-.399.909 1.368 1.368 0 01-.923.39 1.304 1.304 0 01-.74-.281 7.738 7.738 0 00-5.07-1.737c-2.723 0-4.415 1.198-4.415 2.994 0 1.916 2.268 2.527 4.852 3.138 3.469.772 7.466 1.754 7.466 6.107 0 3.3-2.681 5.947-7.836 5.947a11.013 11.013 0 01-7.133-2.324 1.275 1.275 0 01-.57-1.096z" fill="#fff"/></g><defs><linearGradient id="paint0_linear_115_540" x1="0" y1="20.497" x2="43.922" y2="20.497" gradientUnits="userSpaceOnUse"><stop offset=".27" stop-color="#1EDAC9"/><stop offset=".78" stop-color="#14B5FF"/></linearGradient><clipPath id="clip0_115_540"><path fill="#fff" d="M0 0h305v41H0z"/></clipPath></defs></svg>